# xmcd
#
# Track frame offsets:
#	150
#	10015
#	21910
#	35580
#	47643
#	56903
#	64750
#	77417
#	88542
#	103132
#
# Disc length: 1509 seconds
#
# Revision: 0
# Processed by: cddbd v1.5.2PL0 Copyright (c) Steve Scherf et al.
# Submitted via: dBpowerAMP V4.0
#
DISCID=7805e30a
DTITLE=Alabama - Wild Country (Direct Source)
DYEAR=2006
DGENRE=Country
TTITLE0=My Sweet Country Woman
TTITLE1=Try Me
TTITLE2=Flying United
TTITLE3=All American Woman
TTITLE4=Hangin' Up My Travelin' Shoes
TTITLE5=Tied To The Music
TTITLE6=I Go On Lovin' You
TTITLE7=I'll Be There Call On Me
TTITLE8=Make It With You
TTITLE9=Music Moves Me
EXTD=
EXTT0=
EXTT1=
EXTT2=
EXTT3=
EXTT4=
EXTT5=
EXTT6=
EXTT7=
EXTT8=
EXTT9=
PLAYORDER=
